<?xml version="1.0" encoding="utf-8"?>
<!-- Generator: Adobe Illustrator 16.0.3, SVG Export Plug-In . SVG Version: 6.00 Build 0)  -->
<!DOCTYPE svg PUBLIC "-//W3C//DTD SVG 1.1//EN" "http://www.w3.org/Graphics/SVG/1.1/DTD/svg11.dtd">
<svg version="1.1" id="Layer_1" xmlns="http://www.w3.org/2000/svg" xmlns:xlink="http://www.w3.org/1999/xlink" x="0px" y="0px"
	 width="32px" height="32px" viewBox="0 0 32 32" enable-background="new 0 0 32 32" xml:space="preserve">
<g opacity="0.4">
	<path id="shadow_2_" fill="#FFFFFF" fill-opacity="0" d="M24.28,21.99c-1.06-0.56-2.8-0.56-3.87,0l-1.97,1.04
		c-1.06,0.56-2.81,0.56-3.87,0l-1.97-1.04c-1.06-0.56-2.8-0.56-3.87,0L5.7,23.58c-1.06,0.56-1.06,1.48,0,2.04l8.86,4.67
		c1.06,0.56,2.81,0.56,3.87,0l8.86-4.67c1.06-0.56,1.06-1.48,0-2.04L24.28,21.99z"/>
	<path opacity="0.0118" fill="#FBFBFC" enable-background="new    " d="M24.22,22.01c-1.05-0.55-2.78-0.55-3.84,0l-1.96,1.03
		c-1.06,0.56-2.78,0.56-3.84,0l-1.96-1.03c-1.06-0.55-2.78-0.55-3.84,0l-3,1.58c-1.06,0.56-1.06,1.47,0,2.02l8.79,4.63
		c1.06,0.55,2.78,0.55,3.84,0l8.79-4.63c1.05-0.55,1.05-1.46,0-2.02L24.22,22.01z"/>
	<path opacity="0.0235" fill="#F7F6F9" enable-background="new    " d="M24.15,22.03c-1.05-0.55-2.76-0.55-3.81,0l-1.94,1.02
		c-1.05,0.55-2.76,0.55-3.81,0l-1.94-1.02c-1.05-0.55-2.76-0.55-3.81,0L5.87,23.6c-1.05,0.55-1.05,1.46,0,2l8.72,4.6
		c1.05,0.55,2.76,0.55,3.81,0l8.72-4.6c1.05-0.55,1.05-1.45,0-2L24.15,22.03z"/>
	<path opacity="0.0353" fill="#F4F2F6" enable-background="new    " d="M24.09,22.06c-1.04-0.54-2.74-0.54-3.78,0l-1.93,1.01
		c-1.04,0.55-2.74,0.55-3.78,0l-1.93-1.01c-1.04-0.54-2.74-0.54-3.78,0l-2.95,1.55c-1.04,0.55-1.04,1.45,0,1.99l8.65,4.56
		c1.04,0.54,2.74,0.54,3.78,0l8.66-4.56c1.04-0.54,1.04-1.44,0-1.99L24.09,22.06z"/>
	<path opacity="0.0471" fill="#F0EEF3" enable-background="new    " d="M24.03,22.08c-1.03-0.54-2.72-0.54-3.75,0l-1.91,1
		c-1.03,0.54-2.72,0.54-3.75,0l-1.91-1c-1.03-0.54-2.72-0.54-3.75,0l-2.93,1.54C5,24.16,5,25.05,6.03,25.59l8.58,4.52
		c1.03,0.54,2.72,0.54,3.75,0l8.58-4.52c1.03-0.54,1.03-1.43,0-1.97L24.03,22.08z"/>
	<path opacity="0.0588" fill="#ECEAF0" enable-background="new    " d="M23.97,22.11c-1.02-0.54-2.7-0.54-3.72,0l-1.9,1
		c-1.02,0.54-2.7,0.54-3.72,0l-1.9-1c-1.02-0.54-2.69-0.54-3.72,0l-2.9,1.53c-1.02,0.54-1.02,1.42,0,1.96l8.52,4.49
		c1.02,0.54,2.7,0.54,3.72,0l8.52-4.49c1.02-0.54,1.02-1.42,0-1.96L23.97,22.11z"/>
	<path opacity="0.0706" fill="#E8E5EE" enable-background="new    " d="M23.91,22.13c-1.01-0.53-2.67-0.53-3.68,0l-1.88,0.99
		c-1.01,0.54-2.67,0.54-3.69,0l-1.88-0.99c-1.01-0.53-2.67-0.53-3.69,0l-2.88,1.52c-1.01,0.53-1.01,1.41,0,1.94l8.45,4.45
		c1.01,0.53,2.67,0.53,3.69,0l8.45-4.45c1.01-0.53,1.01-1.41,0-1.94L23.91,22.13z"/>
	<path opacity="0.0824" fill="#E4E1EB" enable-background="new    " d="M23.85,22.15c-1-0.53-2.65-0.53-3.66,0l-1.87,0.98
		c-1.01,0.53-2.65,0.53-3.66,0l-1.87-0.98c-1.01-0.53-2.65-0.53-3.66,0l-2.85,1.5c-1.01,0.53-1.01,1.4,0,1.93L14.67,30
		c1.01,0.53,2.65,0.53,3.66,0l8.38-4.41c1-0.53,1-1.4,0-1.93L23.85,22.15z"/>
	<path opacity="0.0941" fill="#E0DDE8" enable-background="new    " d="M23.79,22.18c-1-0.52-2.63-0.52-3.62,0l-1.85,0.97
		c-1,0.53-2.63,0.53-3.63,0l-1.85-0.97c-1-0.52-2.63-0.52-3.63,0l-2.83,1.49c-1,0.53-1,1.39,0,1.91l8.31,4.38
		c1,0.52,2.63,0.52,3.63,0l8.31-4.38c1-0.52,1-1.38,0-1.91L23.79,22.18z"/>
	<path opacity="0.1059" fill="#DDD8E5" enable-background="new    " d="M23.73,22.2c-0.99-0.52-2.61-0.52-3.59,0l-1.83,0.96
		c-0.99,0.52-2.61,0.52-3.6,0l-1.83-0.96c-0.99-0.52-2.61-0.52-3.6,0l-2.81,1.48c-0.99,0.52-0.99,1.38,0,1.89l8.24,4.34
		c0.99,0.52,2.61,0.52,3.6,0l8.24-4.34c0.99-0.52,0.99-1.37,0-1.89L23.73,22.2z"/>
	<path opacity="0.1176" fill="#D9D4E2" enable-background="new    " d="M23.67,22.23c-0.98-0.51-2.58-0.51-3.56,0l-1.82,0.96
		c-0.98,0.52-2.59,0.52-3.57,0l-1.82-0.96c-0.98-0.51-2.58-0.51-3.57,0L6.55,23.7c-0.98,0.52-0.98,1.36,0,1.88l8.17,4.3
		c0.98,0.52,2.59,0.52,3.57,0l8.17-4.3c0.98-0.51,0.98-1.36,0-1.88L23.67,22.23z"/>
	<path opacity="0.1294" fill="#D5D0DF" enable-background="new    " d="M23.61,22.25c-0.97-0.51-2.56-0.51-3.53,0l-1.8,0.95
		c-0.97,0.51-2.56,0.51-3.54,0l-1.8-0.95c-0.97-0.51-2.56-0.51-3.54,0L6.63,23.7c-0.97,0.51-0.97,1.35,0,1.86l8.1,4.27
		c0.97,0.51,2.56,0.51,3.54,0l8.1-4.27c0.97-0.51,0.97-1.35,0-1.86L23.61,22.25z"/>
	<path opacity="0.1412" fill="#D1CBDC" enable-background="new    " d="M23.54,22.27c-0.96-0.51-2.54-0.51-3.5,0l-1.79,0.94
		c-0.96,0.51-2.54,0.51-3.51,0l-1.79-0.94c-0.96-0.51-2.54-0.51-3.5,0l-2.74,1.44c-0.96,0.51-0.96,1.34,0,1.85l8.03,4.23
		c0.96,0.51,2.54,0.51,3.51,0l8.03-4.23c0.96-0.5,0.96-1.34,0-1.85L23.54,22.27z"/>
	<path opacity="0.1529" fill="#CDC7D9" enable-background="new    " d="M23.48,22.3c-0.95-0.5-2.52-0.5-3.47,0l-1.77,0.93
		c-0.96,0.5-2.52,0.5-3.48,0l-1.77-0.93c-0.96-0.5-2.52-0.5-3.47,0L6.8,23.73c-0.96,0.5-0.96,1.33,0,1.83l7.96,4.19
		c0.96,0.5,2.52,0.5,3.48,0l7.96-4.19c0.95-0.5,0.95-1.33,0-1.83L23.48,22.3z"/>
	<path opacity="0.1647" fill="#C9C3D6" enable-background="new    " d="M23.42,22.32c-0.95-0.5-2.5-0.5-3.44,0l-1.76,0.92
		c-0.95,0.5-2.5,0.5-3.44,0l-1.76-0.92c-0.95-0.5-2.5-0.5-3.44,0l-2.69,1.42c-0.95,0.5-0.95,1.32,0,1.81l7.89,4.16
		c0.95,0.5,2.5,0.5,3.44,0l7.89-4.16c0.95-0.5,0.95-1.32,0-1.81L23.42,22.32z"/>
	<path opacity="0.1765" fill="#C6BFD3" enable-background="new    " d="M23.36,22.35c-0.94-0.49-2.47-0.49-3.41,0l-1.74,0.92
		c-0.94,0.5-2.48,0.5-3.42,0l-1.74-0.92c-0.94-0.49-2.47-0.49-3.41,0l-2.67,1.4c-0.94,0.49-0.94,1.31,0,1.8l7.82,4.12
		c0.94,0.49,2.48,0.49,3.42,0l7.82-4.12c0.94-0.49,0.94-1.3,0-1.8L23.36,22.35z"/>
	<path opacity="0.1882" fill="#C2BAD1" enable-background="new    " d="M23.3,22.37c-0.93-0.49-2.45-0.49-3.38,0l-1.73,0.91
		c-0.93,0.49-2.45,0.49-3.39,0l-1.73-0.91c-0.93-0.49-2.45-0.49-3.38,0l-2.64,1.39c-0.93,0.49-0.93,1.29,0,1.78l7.75,4.08
		c0.93,0.49,2.45,0.49,3.39,0l7.75-4.08c0.93-0.49,0.93-1.29,0-1.78L23.3,22.37z"/>
	<path opacity="0.2" fill="#BEB6CE" enable-background="new    " d="M23.24,22.39c-0.92-0.49-2.43-0.49-3.35,0l-1.71,0.9
		c-0.92,0.49-2.43,0.49-3.35,0l-1.71-0.9c-0.92-0.49-2.43-0.49-3.35,0l-2.62,1.38c-0.92,0.49-0.92,1.28,0,1.77l7.68,4.05
		c0.92,0.48,2.43,0.48,3.35,0l7.68-4.05c0.92-0.48,0.92-1.28,0-1.77L23.24,22.39z"/>
	<path opacity="0.2118" fill="#BAB2CB" enable-background="new    " d="M23.18,22.42c-0.91-0.48-2.41-0.48-3.32,0l-1.7,0.89
		c-0.91,0.48-2.41,0.48-3.32,0l-1.7-0.89c-0.91-0.48-2.41-0.48-3.32,0l-2.59,1.37c-0.91,0.48-0.91,1.27,0,1.75l7.61,4.01
		c0.91,0.48,2.41,0.48,3.32,0l7.61-4.01c0.91-0.48,0.91-1.27,0-1.75L23.18,22.42z"/>
	<path opacity="0.2235" fill="#B6ADC8" enable-background="new    " d="M23.12,22.44c-0.91-0.48-2.39-0.48-3.29,0l-1.68,0.88
		c-0.91,0.48-2.39,0.48-3.29,0l-1.68-0.88c-0.91-0.48-2.39-0.48-3.29,0L7.31,23.8c-0.91,0.48-0.91,1.26,0,1.73l7.54,3.97
		c0.91,0.48,2.39,0.48,3.29,0l7.54-3.97c0.9-0.48,0.9-1.26,0-1.73L23.12,22.44z"/>
	<path opacity="0.2353" fill="#B3A9C5" enable-background="new    " d="M23.06,22.46c-0.9-0.47-2.36-0.47-3.26,0l-1.66,0.88
		c-0.9,0.47-2.37,0.47-3.26,0l-1.66-0.88c-0.9-0.47-2.36-0.47-3.26,0L7.4,23.81c-0.9,0.47-0.9,1.25,0,1.72l7.47,3.94
		c0.9,0.47,2.37,0.47,3.26,0l7.47-3.94c0.9-0.47,0.9-1.25,0-1.72L23.06,22.46z"/>
	<path opacity="0.2471" fill="#AFA5C2" enable-background="new    " d="M23,22.49c-0.89-0.47-2.34-0.47-3.23,0l-1.65,0.87
		c-0.89,0.47-2.34,0.47-3.23,0l-1.65-0.87c-0.89-0.47-2.34-0.47-3.23,0l-2.52,1.33c-0.89,0.47-0.89,1.24,0,1.7l7.4,3.9
		c0.89,0.47,2.34,0.47,3.23,0l7.4-3.9c0.89-0.47,0.89-1.23,0-1.7L23,22.49z"/>
	<path opacity="0.2588" fill="#ABA1BF" enable-background="new    " d="M22.94,22.51c-0.88-0.46-2.32-0.46-3.2,0l-1.63,0.86
		c-0.88,0.46-2.32,0.46-3.2,0l-1.63-0.86c-0.88-0.46-2.32-0.46-3.2,0l-2.5,1.32c-0.88,0.46-0.88,1.22,0,1.69l7.33,3.86
		c0.88,0.46,2.32,0.46,3.2,0l7.33-3.86c0.88-0.46,0.88-1.22,0-1.69L22.94,22.51z"/>
	<path opacity="0.2706" fill="#A79CBC" enable-background="new    " d="M22.87,22.54c-0.87-0.46-2.3-0.46-3.17,0l-1.62,0.85
		c-0.87,0.46-2.3,0.46-3.17,0l-1.62-0.85c-0.87-0.46-2.3-0.46-3.17,0l-2.48,1.3c-0.87,0.46-0.87,1.21,0,1.67l7.26,3.83
		c0.87,0.46,2.3,0.46,3.17,0l7.26-3.83c0.87-0.46,0.87-1.21,0-1.67L22.87,22.54z"/>
	<path opacity="0.2824" fill="#A398B9" enable-background="new    " d="M22.81,22.56c-0.86-0.45-2.28-0.45-3.14,0l-1.6,0.84
		c-0.86,0.45-2.28,0.45-3.14,0l-1.6-0.84c-0.86-0.45-2.28-0.45-3.14,0l-2.45,1.29c-0.86,0.46-0.86,1.2,0,1.66l7.19,3.79
		c0.86,0.46,2.28,0.46,3.14,0l7.2-3.79c0.86-0.45,0.86-1.2,0-1.66L22.81,22.56z"/>
	<path opacity="0.2941" fill="#9F94B6" enable-background="new    " d="M22.75,22.58c-0.85-0.45-2.25-0.45-3.11,0l-1.59,0.84
		c-0.86,0.45-2.26,0.45-3.11,0l-1.59-0.84c-0.85-0.45-2.25-0.45-3.11,0l-2.43,1.28c-0.86,0.45-0.86,1.19,0,1.64l7.13,3.75
		c0.86,0.45,2.26,0.45,3.11,0l7.13-3.75c0.85-0.45,0.85-1.19,0-1.64L22.75,22.58z"/>
	<path opacity="0.3059" fill="#9C8FB4" enable-background="new    " d="M22.69,22.61c-0.85-0.45-2.23-0.45-3.08,0l-1.57,0.83
		c-0.85,0.45-2.23,0.45-3.08,0l-1.57-0.83c-0.85-0.45-2.23-0.45-3.08,0l-2.4,1.27c-0.85,0.45-0.85,1.18,0,1.62l7.06,3.72
		c0.85,0.45,2.23,0.45,3.08,0l7.06-3.72c0.85-0.44,0.85-1.18,0-1.62L22.69,22.61z"/>
	<path opacity="0.3176" fill="#988BB1" enable-background="new    " d="M22.63,22.63c-0.84-0.44-2.21-0.44-3.05,0l-1.55,0.82
		c-0.84,0.44-2.21,0.44-3.05,0l-1.55-0.82c-0.84-0.44-2.21-0.44-3.05,0L8,23.88c-0.84,0.44-0.84,1.17,0,1.61l6.99,3.68
		c0.84,0.44,2.21,0.44,3.05,0l6.99-3.68c0.84-0.44,0.84-1.17,0-1.61L22.63,22.63z"/>
	<path opacity="0.3294" fill="#9487AE" enable-background="new    " d="M22.57,22.66c-0.83-0.44-2.19-0.44-3.02,0l-1.54,0.81
		c-0.83,0.44-2.19,0.44-3.02,0l-1.54-0.81c-0.83-0.44-2.19-0.44-3.02,0L8.07,23.9c-0.83,0.44-0.83,1.15,0,1.59l6.92,3.64
		c0.83,0.44,2.19,0.44,3.02,0l6.92-3.64c0.83-0.44,0.83-1.15,0-1.59L22.57,22.66z"/>
	<path opacity="0.3412" fill="#9082AB" enable-background="new    " d="M22.51,22.68c-0.82-0.43-2.17-0.43-2.99,0L18,23.48
		c-0.82,0.43-2.17,0.43-2.99,0l-1.52-0.8c-0.82-0.43-2.17-0.43-2.99,0l-2.33,1.23c-0.82,0.43-0.82,1.14,0,1.58l6.85,3.61
		c0.82,0.43,2.17,0.43,2.99,0l6.85-3.61c0.82-0.43,0.82-1.14,0-1.58L22.51,22.68z"/>
	<path opacity="0.3529" fill="#8C7EA8" enable-background="new    " d="M22.45,22.71c-0.81-0.43-2.14-0.43-2.96,0l-1.51,0.79
		c-0.81,0.43-2.15,0.43-2.96,0l-1.51-0.79c-0.81-0.43-2.14-0.43-2.96,0l-2.31,1.22c-0.81,0.43-0.81,1.13,0,1.56l6.78,3.57
		c0.81,0.43,2.15,0.43,2.96,0l6.78-3.57c0.81-0.43,0.81-1.13,0-1.56L22.45,22.71z"/>
	<path opacity="0.3647" fill="#887AA5" enable-background="new    " d="M22.39,22.73c-0.81-0.42-2.12-0.42-2.93,0l-1.49,0.79
		c-0.81,0.42-2.12,0.42-2.93,0l-1.49-0.79c-0.81-0.42-2.12-0.42-2.93,0l-2.29,1.21c-0.8,0.42-0.8,1.12,0,1.54l6.71,3.53
		c0.81,0.43,2.12,0.43,2.93,0l6.71-3.53c0.8-0.42,0.8-1.12,0-1.54L22.39,22.73z"/>
	<path opacity="0.3765" fill="#8576A2" enable-background="new    " d="M22.33,22.75c-0.8-0.42-2.1-0.42-2.9,0l-1.48,0.78
		c-0.8,0.42-2.1,0.42-2.9,0l-1.48-0.78c-0.8-0.42-2.1-0.42-2.9,0l-2.26,1.19c-0.8,0.42-0.8,1.11,0,1.53l6.64,3.5
		c0.8,0.42,2.1,0.42,2.9,0l6.64-3.5c0.79-0.42,0.79-1.11,0-1.53L22.33,22.75z"/>
	<path opacity="0.3882" fill="#81719F" enable-background="new    " d="M22.26,22.78c-0.79-0.41-2.08-0.41-2.87,0l-1.46,0.77
		c-0.79,0.42-2.08,0.42-2.87,0l-1.46-0.77c-0.79-0.41-2.08-0.41-2.87,0L8.5,23.96c-0.79,0.42-0.79,1.1,0,1.51l6.57,3.46
		c0.79,0.42,2.08,0.42,2.87,0l6.57-3.46c0.79-0.42,0.79-1.1,0-1.51L22.26,22.78z"/>
	<path opacity="0.4" fill="#7D6D9C" enable-background="new    " d="M22.2,22.8c-0.78-0.41-2.06-0.41-2.84,0l-1.45,0.76
		c-0.78,0.41-2.06,0.41-2.84,0l-1.45-0.76c-0.78-0.41-2.06-0.41-2.84,0l-2.21,1.17c-0.78,0.41-0.78,1.08,0,1.5l6.5,3.42
		c0.78,0.41,2.06,0.41,2.84,0l6.5-3.42c0.78-0.41,0.78-1.08,0-1.5L22.2,22.8z"/>
	<path opacity="0.4118" fill="#796999" enable-background="new    " d="M22.14,22.82c-0.77-0.41-2.04-0.41-2.81,0l-1.43,0.76
		c-0.77,0.41-2.04,0.41-2.81,0l-1.43-0.76c-0.77-0.41-2.04-0.41-2.81,0l-2.19,1.15c-0.77,0.41-0.77,1.07,0,1.48l6.43,3.39
		c0.77,0.41,2.04,0.41,2.81,0l6.43-3.39c0.77-0.41,0.77-1.07,0-1.48L22.14,22.82z"/>
	<path opacity="0.4235" fill="#756497" enable-background="new    " d="M22.08,22.85c-0.76-0.4-2.01-0.4-2.78,0l-1.42,0.75
		c-0.76,0.4-2.01,0.4-2.78,0l-1.42-0.75c-0.76-0.4-2.01-0.4-2.78,0l-2.17,1.14c-0.76,0.4-0.76,1.06,0,1.46l6.36,3.35
		c0.76,0.4,2.01,0.4,2.78,0l6.36-3.35c0.76-0.4,0.76-1.06,0-1.46L22.08,22.85z"/>
	<path opacity="0.4353" fill="#726094" enable-background="new    " d="M22.02,22.87c-0.75-0.4-1.99-0.4-2.75,0l-1.4,0.74
		c-0.76,0.4-1.99,0.4-2.75,0l-1.4-0.74c-0.75-0.4-1.99-0.4-2.75,0L8.84,24c-0.76,0.4-0.76,1.05,0,1.45l6.29,3.31
		c0.76,0.4,1.99,0.4,2.75,0l6.29-3.31c0.75-0.4,0.75-1.05,0-1.45L22.02,22.87z"/>
	<path opacity="0.4471" fill="#6E5C91" enable-background="new    " d="M21.96,22.9c-0.75-0.39-1.97-0.39-2.72,0l-1.38,0.73
		c-0.75,0.39-1.97,0.39-2.72,0l-1.39-0.73c-0.75-0.39-1.97-0.39-2.72,0l-2.12,1.12c-0.75,0.39-0.75,1.04,0,1.43l6.22,3.28
		c0.75,0.4,1.97,0.4,2.72,0l6.22-3.28c0.75-0.39,0.75-1.04,0-1.43L21.96,22.9z"/>
	<path opacity="0.4588" fill="#6A588E" enable-background="new    " d="M21.9,22.92c-0.74-0.39-1.95-0.39-2.68,0l-1.37,0.72
		c-0.74,0.39-1.95,0.39-2.69,0l-1.37-0.72c-0.74-0.39-1.95-0.39-2.69,0L9,24.03c-0.74,0.39-0.74,1.03,0,1.42l6.15,3.24
		c0.74,0.39,1.95,0.39,2.69,0L24,25.44c0.74-0.39,0.74-1.03,0-1.42L21.9,22.92z"/>
	<path opacity="0.4706" fill="#66538B" enable-background="new    " d="M21.84,22.94c-0.73-0.38-1.92-0.38-2.65,0l-1.35,0.72
		c-0.73,0.38-1.93,0.38-2.66,0l-1.35-0.72c-0.73-0.38-1.92-0.38-2.66,0L9.1,24.03c-0.73,0.38-0.73,1.01,0,1.4l6.08,3.2
		c0.73,0.39,1.92,0.39,2.66,0l6.08-3.2c0.73-0.38,0.73-1.01,0-1.4L21.84,22.94z"/>
	<path opacity="0.4824" fill="#624F88" enable-background="new    " d="M21.78,22.97c-0.72-0.38-1.9-0.38-2.63,0l-1.34,0.71
		c-0.72,0.38-1.9,0.38-2.63,0l-1.34-0.71c-0.72-0.38-1.9-0.38-2.63,0l-2.05,1.08c-0.72,0.38-0.72,1,0,1.38l6.01,3.17
		c0.72,0.38,1.9,0.38,2.63,0l6.01-3.17c0.72-0.38,0.72-1,0-1.38L21.78,22.97z"/>
	<path opacity="0.4941" fill="#5E4B85" enable-background="new    " d="M21.72,22.99c-0.71-0.38-1.88-0.38-2.59,0l-1.32,0.7
		c-0.71,0.37-1.88,0.37-2.6,0l-1.32-0.7c-0.71-0.38-1.88-0.38-2.6,0l-2.03,1.07c-0.71,0.38-0.71,0.99,0,1.37l5.94,3.13
		c0.71,0.38,1.88,0.38,2.6,0l5.94-3.13c0.71-0.38,0.71-0.99,0-1.37L21.72,22.99z"/>
	<path opacity="0.5059" fill="#5B4682" enable-background="new    " d="M21.65,23.02c-0.7-0.37-1.86-0.37-2.56,0l-1.31,0.69
		c-0.71,0.37-1.86,0.37-2.57,0l-1.31-0.69c-0.71-0.37-1.86-0.37-2.56,0l-2,1.05c-0.71,0.37-0.71,0.98,0,1.35l5.87,3.09
		c0.71,0.37,1.86,0.37,2.57,0l5.88-3.09c0.7-0.37,0.7-0.98,0-1.35L21.65,23.02z"/>
	<path opacity="0.5176" fill="#57427F" enable-background="new    " d="M21.59,23.04c-0.7-0.37-1.84-0.37-2.53,0l-1.29,0.68
		c-0.7,0.37-1.84,0.37-2.54,0l-1.29-0.68c-0.7-0.37-1.84-0.37-2.53,0l-1.98,1.04c-0.7,0.37-0.7,0.97,0,1.34l5.81,3.06
		c0.7,0.37,1.84,0.37,2.54,0l5.8-3.06c0.7-0.37,0.7-0.97,0-1.34L21.59,23.04z"/>
	<path opacity="0.5294" fill="#533E7C" enable-background="new    " d="M21.53,23.06c-0.69-0.36-1.82-0.36-2.5,0l-1.28,0.67
		c-0.69,0.36-1.82,0.36-2.5,0l-1.28-0.67c-0.69-0.36-1.81-0.36-2.5,0l-1.95,1.03c-0.69,0.36-0.69,0.96,0,1.32l5.73,3.02
		c0.69,0.37,1.82,0.37,2.5,0l5.74-3.02c0.69-0.36,0.69-0.96,0-1.32L21.53,23.06z"/>
	<path opacity="0.5412" fill="#4F397A" enable-background="new    " d="M21.47,23.09c-0.68-0.36-1.79-0.36-2.47,0l-1.26,0.67
		c-0.68,0.36-1.79,0.36-2.48,0L14,23.09c-0.68-0.36-1.79-0.36-2.47,0L9.6,24.1c-0.68,0.36-0.68,0.95,0,1.3l5.67,2.98
		c0.68,0.36,1.79,0.36,2.48,0l5.67-2.98c0.68-0.36,0.68-0.95,0-1.3L21.47,23.09z"/>
	<path opacity="0.5529" fill="#4B3577" enable-background="new    " d="M21.41,23.11c-0.67-0.35-1.77-0.35-2.44,0l-1.25,0.66
		c-0.67,0.35-1.77,0.35-2.44,0l-1.25-0.66c-0.67-0.35-1.77-0.35-2.44,0l-1.91,1c-0.67,0.35-0.67,0.93,0,1.29l5.6,2.95
		c0.67,0.36,1.77,0.36,2.44,0l5.6-2.95c0.67-0.35,0.67-0.93,0-1.29L21.41,23.11z"/>
	<path opacity="0.5647" fill="#473174" enable-background="new    " d="M21.35,23.13c-0.66-0.35-1.75-0.35-2.41,0l-1.23,0.65
		c-0.66,0.35-1.75,0.35-2.41,0l-1.23-0.65c-0.66-0.35-1.75-0.35-2.41,0l-1.88,0.99c-0.66,0.35-0.66,0.92,0,1.27l5.53,2.91
		c0.66,0.35,1.75,0.35,2.41,0l5.53-2.91c0.66-0.35,0.66-0.92,0-1.27L21.35,23.13z"/>
	<path opacity="0.5765" fill="#442D71" enable-background="new    " d="M21.29,23.16c-0.66-0.34-1.73-0.34-2.38,0L17.7,23.8
		c-0.66,0.34-1.73,0.34-2.38,0l-1.21-0.64c-0.65-0.34-1.73-0.34-2.38,0l-1.86,0.98c-0.66,0.34-0.66,0.91,0,1.26l5.46,2.87
		c0.66,0.35,1.73,0.35,2.38,0l5.46-2.87c0.65-0.35,0.65-0.91,0-1.26L21.29,23.16z"/>
	<path opacity="0.5882" fill="#40286E" enable-background="new    " d="M21.23,23.18c-0.65-0.34-1.71-0.34-2.35,0l-1.2,0.63
		c-0.65,0.34-1.71,0.34-2.35,0l-1.2-0.63c-0.65-0.34-1.7-0.34-2.35,0l-1.84,0.97c-0.65,0.34-0.65,0.9,0,1.24l5.39,2.84
		c0.65,0.34,1.71,0.34,2.35,0l5.39-2.84c0.64-0.34,0.64-0.9,0-1.24L21.23,23.18z"/>
	<path id="shadow_1_" opacity="0.6" fill="#3C246B" enable-background="new    " d="M21.17,23.21c-0.64-0.34-1.68-0.34-2.32,0
		l-1.18,0.63c-0.64,0.33-1.68,0.33-2.32,0l-1.18-0.63c-0.64-0.34-1.68-0.34-2.32,0l-1.81,0.96c-0.64,0.34-0.64,0.89,0,1.22l5.32,2.8
		c0.64,0.34,1.68,0.34,2.32,0l5.32-2.8c0.64-0.34,0.64-0.89,0-1.22L21.17,23.21z"/>
</g>
<polygon id="u" fill="#5F29C6" points="29,6.91 29,22.57 16.5,29.09 4,22.57 4,6.91 4,6.91 10.93,3.3 10.93,18.66 16.5,21.56 
	22.07,18.66 22.07,3.3 "/>
<polygon id="line" fill="#EAE3F9" points="29,6.91 29,7.92 22.07,11.54 16.95,14.21 16.95,28.86 16.5,29.09 16.05,28.86 
	16.05,14.21 10.93,11.54 4,7.92 4,6.91 4,6.91 10.93,10.52 16.5,13.43 22.07,10.52 "/>
</svg>
