<?xml version="1.0" encoding="utf-8"?>
<!-- Generator: Adobe Illustrator 16.0.3, SVG Export Plug-In . SVG Version: 6.00 Build 0)  -->
<!DOCTYPE svg PUBLIC "-//W3C//DTD SVG 1.1//EN" "http://www.w3.org/Graphics/SVG/1.1/DTD/svg11.dtd">
<svg version="1.1" id="Layer_1" xmlns="http://www.w3.org/2000/svg" xmlns:xlink="http://www.w3.org/1999/xlink" x="0px" y="0px"
	 width="48px" height="48px" viewBox="0 0 48 48" enable-background="new 0 0 48 48" xml:space="preserve">
<g opacity="0.4">
	<path id="shadow_2_" fill="#FFFFFF" fill-opacity="0" d="M35.82,34.58c-1.62-0.85-4.26-0.85-5.88,0l-3,1.58
		c-1.62,0.86-4.27,0.86-5.88,0l-3-1.58c-1.62-0.85-4.26-0.85-5.88,0L7.59,37c-1.62,0.85-1.62,2.25,0,3.09l13.47,7.1
		c1.62,0.85,4.27,0.85,5.88,0l13.47-7.1c1.62-0.85,1.62-2.25,0-3.09L35.82,34.58z"/>
	<path opacity="0.0118" fill="#FBFBFC" enable-background="new    " d="M35.73,34.62c-1.6-0.84-4.23-0.84-5.83,0l-2.98,1.56
		c-1.61,0.85-4.23,0.85-5.84,0l-2.98-1.56c-1.6-0.84-4.23-0.84-5.83,0l-4.55,2.4c-1.61,0.84-1.61,2.23,0,3.07l13.37,7.04
		c1.6,0.84,4.23,0.84,5.84,0l13.37-7.04c1.6-0.84,1.6-2.23,0-3.07L35.73,34.62z"/>
	<path opacity="0.0235" fill="#F7F6F9" enable-background="new    " d="M35.63,34.65c-1.59-0.84-4.2-0.84-5.79,0L26.9,36.2
		c-1.59,0.84-4.2,0.84-5.79,0l-2.95-1.55c-1.59-0.84-4.2-0.84-5.79,0l-4.52,2.38c-1.59,0.84-1.59,2.21,0,3.05l13.26,6.99
		c1.59,0.83,4.2,0.83,5.79,0l13.26-6.99c1.59-0.83,1.59-2.21,0-3.05L35.63,34.65z"/>
	<path opacity="0.0353" fill="#F4F2F6" enable-background="new    " d="M35.54,34.69c-1.58-0.83-4.16-0.83-5.74,0l-2.93,1.54
		c-1.58,0.83-4.17,0.83-5.74,0l-2.93-1.54c-1.58-0.83-4.16-0.83-5.74,0l-4.48,2.36c-1.58,0.83-1.58,2.19,0,3.02L21.13,47
		c1.58,0.83,4.16,0.83,5.74,0l13.16-6.93c1.58-0.83,1.58-2.19,0-3.02L35.54,34.69z"/>
	<path opacity="0.0471" fill="#F0EEF3" enable-background="new    " d="M35.45,34.73c-1.56-0.82-4.13-0.82-5.69,0l-2.91,1.53
		c-1.57,0.83-4.13,0.83-5.7,0l-2.91-1.53c-1.57-0.82-4.13-0.82-5.7,0L8.1,37.07c-1.57,0.82-1.57,2.18,0,3l13.05,6.88
		c1.57,0.82,4.13,0.82,5.7,0l13.05-6.88c1.56-0.82,1.56-2.17,0-3L35.45,34.73z"/>
	<path opacity="0.0588" fill="#ECEAF0" enable-background="new    " d="M35.36,34.76c-1.55-0.82-4.1-0.82-5.65,0l-2.88,1.51
		c-1.55,0.82-4.1,0.82-5.65,0l-2.88-1.51c-1.55-0.82-4.1-0.82-5.65,0l-4.41,2.33c-1.55,0.82-1.55,2.16,0,2.97l12.94,6.82
		c1.55,0.81,4.1,0.81,5.65,0l12.95-6.82c1.55-0.82,1.55-2.16,0-2.97L35.36,34.76z"/>
	<path opacity="0.0706" fill="#E8E5EE" enable-background="new    " d="M35.26,34.8c-1.54-0.81-4.06-0.81-5.6,0l-2.86,1.5
		c-1.54,0.81-4.06,0.81-5.61,0l-2.86-1.5c-1.54-0.81-4.06-0.81-5.6,0l-4.37,2.31c-1.54,0.81-1.54,2.14,0,2.95l12.84,6.76
		c1.54,0.81,4.06,0.81,5.61,0l12.84-6.76c1.54-0.81,1.54-2.14,0-2.95L35.26,34.8z"/>
	<path opacity="0.0824" fill="#E4E1EB" enable-background="new    " d="M35.17,34.83c-1.53-0.8-4.03-0.8-5.56,0l-2.83,1.49
		c-1.53,0.81-4.03,0.81-5.56,0l-2.84-1.49c-1.53-0.8-4.03-0.8-5.56,0l-4.34,2.29c-1.53,0.8-1.53,2.12,0,2.92l12.73,6.71
		c1.53,0.8,4.03,0.8,5.56,0l12.73-6.71c1.53-0.8,1.53-2.12,0-2.92L35.17,34.83z"/>
	<path opacity="0.0941" fill="#E0DDE8" enable-background="new    " d="M35.08,34.87c-1.51-0.8-4-0.8-5.51,0l-2.81,1.48
		c-1.52,0.8-4,0.8-5.51,0l-2.81-1.48c-1.52-0.8-4-0.8-5.51,0l-4.3,2.27c-1.52,0.8-1.52,2.1,0,2.9l12.63,6.65c1.52,0.8,4,0.8,5.51,0
		l12.63-6.65c1.51-0.8,1.51-2.1,0-2.9L35.08,34.87z"/>
	<path opacity="0.1059" fill="#DDD8E5" enable-background="new    " d="M34.99,34.91c-1.5-0.79-3.96-0.79-5.46,0l-2.79,1.46
		c-1.5,0.79-3.96,0.79-5.47,0l-2.79-1.46c-1.5-0.79-3.96-0.79-5.47,0l-4.27,2.25c-1.5,0.79-1.5,2.09,0,2.88l12.52,6.6
		c1.5,0.79,3.96,0.79,5.47,0l12.52-6.6c1.5-0.79,1.5-2.09,0-2.88L34.99,34.91z"/>
	<path opacity="0.1176" fill="#D9D4E2" enable-background="new    " d="M34.89,34.94c-1.49-0.78-3.93-0.78-5.42,0l-2.76,1.45
		c-1.49,0.79-3.93,0.79-5.42,0l-2.77-1.45c-1.49-0.78-3.93-0.78-5.42,0l-4.23,2.23c-1.49,0.78-1.49,2.07,0,2.85l12.41,6.54
		c1.49,0.78,3.93,0.78,5.42,0l12.42-6.54c1.49-0.78,1.49-2.07,0-2.85L34.89,34.94z"/>
	<path opacity="0.1294" fill="#D5D0DF" enable-background="new    " d="M34.8,34.98c-1.48-0.78-3.9-0.78-5.37,0l-2.74,1.44
		c-1.48,0.78-3.9,0.78-5.38,0l-2.74-1.44c-1.48-0.78-3.9-0.78-5.37,0L9,37.19c-1.48,0.78-1.48,2.05,0,2.83l12.31,6.49
		c1.48,0.78,3.9,0.78,5.38,0L39,40.02c1.48-0.78,1.48-2.05,0-2.83L34.8,34.98z"/>
	<path opacity="0.1412" fill="#D1CBDC" enable-background="new    " d="M34.71,35.02c-1.46-0.77-3.86-0.77-5.32,0l-2.72,1.43
		c-1.47,0.77-3.86,0.77-5.33,0l-2.72-1.43c-1.47-0.77-3.86-0.77-5.33,0l-4.16,2.19c-1.47,0.77-1.47,2.03,0,2.8l12.2,6.43
		c1.47,0.77,3.86,0.77,5.33,0l12.21-6.43c1.46-0.77,1.46-2.03,0-2.8L34.71,35.02z"/>
	<path opacity="0.1529" fill="#CDC7D9" enable-background="new    " d="M34.62,35.05c-1.45-0.76-3.83-0.76-5.28,0l-2.69,1.42
		c-1.45,0.77-3.83,0.77-5.28,0l-2.69-1.42c-1.45-0.76-3.83-0.76-5.28,0l-4.12,2.17c-1.45,0.76-1.45,2.02,0,2.78l12.1,6.38
		c1.45,0.76,3.83,0.76,5.28,0L38.76,40c1.45-0.76,1.45-2.02,0-2.78L34.62,35.05z"/>
	<path opacity="0.1647" fill="#C9C3D6" enable-background="new    " d="M34.52,35.09c-1.44-0.76-3.79-0.76-5.23,0l-2.67,1.4
		c-1.44,0.76-3.8,0.76-5.24,0l-2.67-1.4c-1.44-0.76-3.79-0.76-5.23,0l-4.09,2.15c-1.44,0.76-1.44,2,0,2.76l11.99,6.32
		c1.44,0.76,3.8,0.76,5.24,0L38.61,40c1.44-0.76,1.44-2,0-2.76L34.52,35.09z"/>
	<path opacity="0.1765" fill="#C6BFD3" enable-background="new    " d="M34.43,35.13c-1.43-0.75-3.76-0.75-5.19,0l-2.65,1.39
		c-1.43,0.75-3.76,0.75-5.19,0l-2.65-1.39c-1.43-0.75-3.76-0.75-5.19,0l-4.05,2.14c-1.43,0.75-1.43,1.98,0,2.73l11.89,6.26
		c1.43,0.75,3.76,0.75,5.19,0L38.48,40c1.42-0.75,1.42-1.98,0-2.73L34.43,35.13z"/>
	<path opacity="0.1882" fill="#C2BAD1" enable-background="new    " d="M34.34,35.16c-1.41-0.74-3.73-0.74-5.14,0l-2.62,1.38
		c-1.42,0.75-3.73,0.75-5.14,0l-2.62-1.38c-1.41-0.74-3.73-0.74-5.14,0l-4.01,2.12c-1.42,0.74-1.42,1.96,0,2.71l11.78,6.21
		c1.41,0.74,3.73,0.74,5.14,0l11.78-6.21c1.41-0.74,1.41-1.96,0-2.71L34.34,35.16z"/>
	<path opacity="0.2" fill="#BEB6CE" enable-background="new    " d="M34.24,35.2c-1.4-0.74-3.69-0.74-5.09,0l-2.6,1.37
		c-1.4,0.74-3.7,0.74-5.1,0l-2.6-1.37c-1.4-0.74-3.69-0.74-5.1,0l-3.98,2.1c-1.4,0.74-1.4,1.95,0,2.68l11.67,6.15
		c1.4,0.74,3.7,0.74,5.1,0l11.68-6.15c1.4-0.74,1.4-1.95,0-2.68L34.24,35.2z"/>
	<path opacity="0.2118" fill="#BAB2CB" enable-background="new    " d="M34.15,35.24c-1.39-0.73-3.66-0.73-5.05,0l-2.58,1.35
		c-1.39,0.73-3.66,0.73-5.05,0l-2.58-1.35c-1.39-0.73-3.66-0.73-5.05,0L9.9,37.32c-1.39,0.73-1.39,1.93,0,2.66l11.57,6.1
		c1.39,0.73,3.66,0.73,5.05,0l11.57-6.1c1.39-0.73,1.39-1.93,0-2.66L34.15,35.24z"/>
	<path opacity="0.2235" fill="#B6ADC8" enable-background="new    " d="M34.06,35.27c-1.38-0.72-3.63-0.72-5,0l-2.55,1.34
		c-1.38,0.73-3.63,0.73-5.01,0l-2.55-1.34c-1.38-0.72-3.63-0.72-5.01,0l-3.91,2.06c-1.38,0.72-1.38,1.91,0,2.63L21.49,46
		c1.38,0.72,3.63,0.72,5.01,0l11.47-6.04c1.37-0.72,1.37-1.91,0-2.63L34.06,35.27z"/>
	<path opacity="0.2353" fill="#B3A9C5" enable-background="new    " d="M33.97,35.31c-1.36-0.72-3.6-0.72-4.96,0l-2.53,1.33
		c-1.36,0.72-3.6,0.72-4.96,0l-2.53-1.33c-1.36-0.72-3.59-0.72-4.96,0l-3.87,2.04c-1.36,0.71-1.36,1.89,0,2.61l11.36,5.98
		c1.36,0.72,3.6,0.72,4.96,0l11.36-5.98c1.36-0.72,1.36-1.89,0-2.61L33.97,35.31z"/>
	<path opacity="0.2471" fill="#AFA5C2" enable-background="new    " d="M33.87,35.34c-1.35-0.71-3.56-0.71-4.91,0l-2.5,1.32
		c-1.35,0.71-3.56,0.71-4.91,0l-2.51-1.32c-1.35-0.71-3.56-0.71-4.91,0l-3.83,2.02c-1.35,0.71-1.35,1.87,0,2.58l11.25,5.93
		c1.35,0.71,3.56,0.71,4.91,0l11.25-5.93c1.35-0.71,1.35-1.88,0-2.58L33.87,35.34z"/>
	<path opacity="0.2588" fill="#ABA1BF" enable-background="new    " d="M33.78,35.38c-1.34-0.7-3.53-0.7-4.86,0l-2.48,1.3
		c-1.34,0.71-3.53,0.71-4.87,0l-2.48-1.3c-1.34-0.7-3.53-0.7-4.87,0l-3.8,2c-1.34,0.7-1.34,1.86,0,2.56l11.15,5.87
		c1.34,0.7,3.53,0.7,4.87,0l11.15-5.87c1.34-0.71,1.34-1.86,0-2.56L33.78,35.38z"/>
	<path opacity="0.2706" fill="#A79CBC" enable-background="new    " d="M33.69,35.42c-1.32-0.7-3.5-0.7-4.82,0l-2.46,1.29
		c-1.33,0.7-3.5,0.7-4.82,0l-2.46-1.29c-1.33-0.7-3.49-0.7-4.82,0l-3.76,1.98c-1.33,0.7-1.33,1.84,0,2.54l11.04,5.82
		c1.33,0.7,3.5,0.7,4.82,0l11.04-5.82c1.32-0.7,1.32-1.84,0-2.54L33.69,35.42z"/>
	<path opacity="0.2824" fill="#A398B9" enable-background="new    " d="M33.6,35.45c-1.31-0.69-3.46-0.69-4.77,0l-2.44,1.28
		c-1.31,0.69-3.46,0.69-4.78,0l-2.44-1.28c-1.31-0.69-3.46-0.69-4.77,0l-3.73,1.97c-1.31,0.69-1.31,1.82,0,2.51l10.94,5.76
		c1.31,0.69,3.46,0.69,4.78,0l10.94-5.76c1.31-0.69,1.31-1.82,0-2.51L33.6,35.45z"/>
	<path opacity="0.2941" fill="#9F94B6" enable-background="new    " d="M33.5,35.49c-1.3-0.68-3.43-0.68-4.73,0l-2.41,1.27
		c-1.3,0.68-3.43,0.68-4.73,0l-2.41-1.27c-1.3-0.68-3.43-0.68-4.73,0l-3.69,1.95c-1.3,0.68-1.3,1.8,0,2.49l10.83,5.71
		c1.3,0.68,3.43,0.68,4.73,0l10.83-5.71c1.3-0.68,1.3-1.81,0-2.49L33.5,35.49z"/>
	<path opacity="0.3059" fill="#9C8FB4" enable-background="new    " d="M33.41,35.53c-1.29-0.68-3.39-0.68-4.68,0l-2.39,1.26
		c-1.29,0.68-3.4,0.68-4.68,0l-2.39-1.26c-1.29-0.68-3.39-0.68-4.68,0l-3.65,1.93c-1.29,0.68-1.29,1.79,0,2.46l10.72,5.65
		c1.29,0.68,3.39,0.68,4.68,0l10.73-5.65c1.28-0.68,1.28-1.79,0-2.46L33.41,35.53z"/>
	<path opacity="0.3176" fill="#988BB1" enable-background="new    " d="M33.32,35.56c-1.27-0.67-3.36-0.67-4.63,0l-2.37,1.24
		c-1.28,0.67-3.36,0.67-4.64,0l-2.37-1.24c-1.27-0.67-3.36-0.67-4.64,0l-3.62,1.91c-1.28,0.67-1.28,1.77,0,2.44l10.62,5.59
		c1.27,0.67,3.36,0.67,4.64,0l10.62-5.59c1.27-0.67,1.27-1.77,0-2.44L33.32,35.56z"/>
	<path opacity="0.3294" fill="#9487AE" enable-background="new    " d="M33.23,35.6c-1.26-0.66-3.33-0.66-4.59,0l-2.34,1.23
		c-1.26,0.67-3.33,0.67-4.59,0l-2.34-1.23c-1.26-0.66-3.33-0.66-4.59,0l-3.58,1.89c-1.26,0.66-1.26,1.75,0,2.42l10.51,5.54
		c1.26,0.66,3.33,0.66,4.59,0l10.51-5.54c1.26-0.67,1.26-1.75,0-2.42L33.23,35.6z"/>
	<path opacity="0.3412" fill="#9082AB" enable-background="new    " d="M33.13,35.64c-1.25-0.66-3.29-0.66-4.54,0l-2.32,1.22
		c-1.25,0.66-3.3,0.66-4.54,0l-2.32-1.22c-1.25-0.66-3.29-0.66-4.54,0l-3.55,1.87c-1.25,0.66-1.25,1.73,0,2.39l10.41,5.48
		c1.25,0.66,3.29,0.66,4.54,0l10.41-5.48c1.25-0.66,1.25-1.74,0-2.39L33.13,35.64z"/>
	<path opacity="0.3529" fill="#8C7EA8" enable-background="new    " d="M33.04,35.67c-1.24-0.65-3.26-0.65-4.5,0l-2.29,1.21
		c-1.24,0.65-3.26,0.65-4.5,0l-2.29-1.21c-1.24-0.65-3.26-0.65-4.5,0l-3.51,1.85c-1.24,0.65-1.24,1.71,0,2.37l10.3,5.43
		c1.24,0.65,3.26,0.65,4.5,0l10.3-5.43c1.23-0.65,1.23-1.72,0-2.37L33.04,35.67z"/>
	<path opacity="0.3647" fill="#887AA5" enable-background="new    " d="M32.95,35.71c-1.22-0.64-3.23-0.64-4.45,0l-2.27,1.19
		c-1.22,0.64-3.23,0.64-4.45,0l-2.27-1.19c-1.22-0.64-3.23-0.64-4.45,0l-3.47,1.83c-1.22,0.64-1.22,1.7,0,2.34l10.2,5.37
		c1.22,0.65,3.23,0.65,4.45,0l10.2-5.37c1.22-0.65,1.22-1.7,0-2.34L32.95,35.71z"/>
	<path opacity="0.3765" fill="#8576A2" enable-background="new    " d="M32.86,35.75c-1.21-0.64-3.19-0.64-4.4,0l-2.25,1.18
		c-1.21,0.64-3.2,0.64-4.41,0l-2.25-1.18c-1.21-0.64-3.19-0.64-4.41,0l-3.44,1.81c-1.21,0.64-1.21,1.68,0,2.32l10.09,5.32
		c1.21,0.64,3.19,0.64,4.41,0l10.09-5.32c1.21-0.64,1.21-1.68,0-2.32L32.86,35.75z"/>
	<path opacity="0.3882" fill="#81719F" enable-background="new    " d="M32.76,35.78c-1.2-0.63-3.16-0.63-4.36,0l-2.22,1.17
		c-1.2,0.63-3.16,0.63-4.36,0l-2.22-1.17c-1.2-0.63-3.16-0.63-4.36,0l-3.4,1.79c-1.2,0.63-1.2,1.66,0,2.29l9.99,5.26
		c1.2,0.63,3.16,0.63,4.36,0l9.99-5.26c1.2-0.63,1.2-1.67,0-2.29L32.76,35.78z"/>
	<path opacity="0.4" fill="#7D6D9C" enable-background="new    " d="M32.67,35.82c-1.19-0.63-3.13-0.63-4.31,0l-2.2,1.16
		c-1.19,0.62-3.13,0.62-4.31,0l-2.2-1.16c-1.19-0.63-3.13-0.63-4.31,0l-3.37,1.77c-1.19,0.62-1.19,1.64,0,2.27l9.88,5.2
		c1.19,0.63,3.13,0.63,4.31,0l9.88-5.2c1.18-0.63,1.18-1.65,0-2.27L32.67,35.82z"/>
	<path opacity="0.4118" fill="#796999" enable-background="new    " d="M32.58,35.85c-1.17-0.62-3.09-0.62-4.27,0L26.13,37
		c-1.17,0.62-3.09,0.62-4.27,0l-2.18-1.15c-1.17-0.62-3.09-0.62-4.27,0l-3.33,1.76c-1.17,0.62-1.17,1.63,0,2.25L21.87,45
		c1.17,0.62,3.09,0.62,4.27,0l9.78-5.15c1.17-0.62,1.17-1.63,0-2.25L32.58,35.85z"/>
	<path opacity="0.4235" fill="#756497" enable-background="new    " d="M32.48,35.89c-1.16-0.61-3.06-0.61-4.22,0l-2.15,1.13
		c-1.16,0.61-3.06,0.61-4.22,0l-2.15-1.13c-1.16-0.61-3.06-0.61-4.22,0l-3.29,1.74c-1.16,0.61-1.16,1.61,0,2.22l9.67,5.09
		c1.16,0.61,3.06,0.61,4.22,0l9.67-5.09c1.16-0.61,1.16-1.61,0-2.22L32.48,35.89z"/>
	<path opacity="0.4353" fill="#726094" enable-background="new    " d="M32.39,35.93c-1.15-0.6-3.03-0.6-4.17,0l-2.13,1.12
		c-1.15,0.6-3.03,0.6-4.18,0l-2.13-1.12c-1.15-0.6-3.03-0.6-4.18,0l-3.26,1.72c-1.15,0.6-1.15,1.59,0,2.2l9.56,5.04
		c1.15,0.61,3.03,0.61,4.18,0l9.56-5.04c1.15-0.61,1.15-1.6,0-2.2L32.39,35.93z"/>
	<path opacity="0.4471" fill="#6E5C91" enable-background="new    " d="M32.3,35.96c-1.13-0.6-2.99-0.6-4.13,0l-2.11,1.11
		c-1.14,0.6-2.99,0.6-4.13,0l-2.11-1.11c-1.14-0.6-2.99-0.6-4.13,0l-3.22,1.7c-1.14,0.6-1.14,1.57,0,2.17l9.46,4.98
		c1.13,0.6,2.99,0.6,4.13,0l9.46-4.98c1.13-0.6,1.13-1.58,0-2.17L32.3,35.96z"/>
	<path opacity="0.4588" fill="#6A588E" enable-background="new    " d="M32.21,36c-1.12-0.59-2.96-0.59-4.08,0l-2.08,1.1
		c-1.12,0.59-2.96,0.59-4.08,0L19.88,36c-1.12-0.59-2.96-0.59-4.08,0l-3.19,1.68c-1.12,0.59-1.12,1.56,0,2.15l9.35,4.92
		c1.12,0.59,2.96,0.59,4.08,0l9.35-4.92c1.12-0.59,1.12-1.56,0-2.15L32.21,36z"/>
	<path opacity="0.4706" fill="#66538B" enable-background="new    " d="M32.11,36.04c-1.11-0.58-2.93-0.58-4.04,0l-2.06,1.08
		c-1.11,0.58-2.93,0.58-4.04,0l-2.06-1.08c-1.11-0.58-2.93-0.58-4.04,0l-3.15,1.66c-1.11,0.58-1.11,1.54,0,2.13l9.25,4.87
		c1.11,0.59,2.93,0.59,4.04,0l9.25-4.87c1.11-0.59,1.11-1.54,0-2.13L32.11,36.04z"/>
	<path opacity="0.4824" fill="#624F88" enable-background="new    " d="M32.02,36.07c-1.1-0.58-2.89-0.58-3.99,0L26,37.14
		c-1.1,0.58-2.89,0.58-3.99,0l-2.04-1.07c-1.1-0.58-2.89-0.58-3.99,0l-3.11,1.64c-1.1,0.58-1.1,1.52,0,2.1l9.14,4.81
		c1.1,0.58,2.89,0.58,3.99,0l9.14-4.81c1.09-0.58,1.09-1.53,0-2.1L32.02,36.07z"/>
	<path opacity="0.4941" fill="#5E4B85" enable-background="new    " d="M31.93,36.11c-1.08-0.57-2.86-0.57-3.94,0l-2.01,1.06
		c-1.09,0.57-2.86,0.57-3.94,0l-2.01-1.06c-1.09-0.57-2.86-0.57-3.94,0l-3.08,1.62c-1.08,0.57-1.08,1.5,0,2.08l9.04,4.76
		c1.08,0.57,2.86,0.57,3.94,0l9.04-4.76c1.08-0.57,1.08-1.51,0-2.08L31.93,36.11z"/>
	<path opacity="0.5059" fill="#5B4682" enable-background="new    " d="M31.84,36.15c-1.07-0.57-2.83-0.57-3.9,0l-1.99,1.05
		c-1.07,0.56-2.83,0.56-3.9,0l-1.99-1.05c-1.07-0.57-2.82-0.57-3.9,0l-3.04,1.6c-1.07,0.56-1.07,1.49,0,2.05l8.93,4.7
		c1.07,0.57,2.82,0.57,3.9,0l8.93-4.7c1.07-0.57,1.07-1.49,0-2.05L31.84,36.15z"/>
	<path opacity="0.5176" fill="#57427F" enable-background="new    " d="M31.74,36.18c-1.06-0.56-2.79-0.56-3.85,0l-1.96,1.04
		c-1.06,0.56-2.79,0.56-3.85,0l-1.96-1.04c-1.06-0.56-2.79-0.56-3.85,0l-3.01,1.58c-1.06,0.56-1.06,1.47,0,2.03l8.82,4.65
		c1.06,0.56,2.79,0.56,3.85,0l8.82-4.65c1.06-0.56,1.06-1.47,0-2.03L31.74,36.18z"/>
	<path opacity="0.5294" fill="#533E7C" enable-background="new    " d="M31.65,36.22c-1.05-0.55-2.76-0.55-3.8,0l-1.94,1.02
		c-1.05,0.55-2.76,0.55-3.81,0l-1.94-1.02c-1.05-0.55-2.76-0.55-3.81,0l-2.97,1.57c-1.05,0.55-1.05,1.45,0,2l8.72,4.59
		c1.05,0.55,2.76,0.55,3.81,0l8.72-4.59c1.04-0.55,1.04-1.46,0-2L31.65,36.22z"/>
	<path opacity="0.5412" fill="#4F397A" enable-background="new    " d="M31.56,36.25c-1.03-0.54-2.73-0.54-3.76,0l-1.92,1.01
		c-1.04,0.54-2.73,0.54-3.76,0l-1.92-1.01c-1.03-0.54-2.72-0.54-3.76,0l-2.93,1.55c-1.03,0.54-1.03,1.43,0,1.98l8.61,4.54
		c1.03,0.55,2.72,0.55,3.76,0l8.61-4.54c1.03-0.55,1.03-1.44,0-1.98L31.56,36.25z"/>
	<path opacity="0.5529" fill="#4B3577" enable-background="new    " d="M31.46,36.29c-1.02-0.54-2.69-0.54-3.71,0l-1.9,1
		c-1.02,0.54-2.69,0.54-3.71,0l-1.89-1c-1.02-0.54-2.69-0.54-3.71,0l-2.9,1.53c-1.02,0.54-1.02,1.41,0,1.96l8.51,4.48
		c1.02,0.54,2.69,0.54,3.71,0l8.51-4.48c1.02-0.54,1.02-1.42,0-1.96L31.46,36.29z"/>
	<path opacity="0.5647" fill="#473174" enable-background="new    " d="M31.37,36.33c-1.01-0.53-2.66-0.53-3.67,0l-1.87,0.99
		c-1.01,0.53-2.66,0.53-3.67,0l-1.87-0.99c-1.01-0.53-2.66-0.53-3.67,0l-2.86,1.51c-1.01,0.53-1.01,1.4,0,1.93l8.4,4.42
		c1.01,0.53,2.66,0.53,3.67,0l8.4-4.42c1-0.53,1-1.4,0-1.93L31.37,36.33z"/>
	<path opacity="0.5765" fill="#442D71" enable-background="new    " d="M31.28,36.36c-1-0.52-2.63-0.52-3.62,0l-1.85,0.97
		c-1,0.52-2.63,0.52-3.62,0l-1.85-0.97c-1-0.52-2.63-0.52-3.62,0l-2.83,1.49c-1,0.52-1,1.38,0,1.91l8.3,4.37
		c1,0.53,2.62,0.53,3.62,0l8.3-4.37c0.99-0.53,0.99-1.38,0-1.91L31.28,36.36z"/>
	<path opacity="0.5882" fill="#40286E" enable-background="new    " d="M31.19,36.4c-0.98-0.52-2.59-0.52-3.57,0l-1.82,0.96
		c-0.99,0.51-2.59,0.51-3.58,0L20.4,36.4c-0.98-0.52-2.59-0.52-3.58,0l-2.79,1.47c-0.98,0.52-0.98,1.36,0,1.88l8.19,4.31
		c0.98,0.52,2.59,0.52,3.58,0l8.19-4.31c0.98-0.52,0.98-1.37,0-1.88L31.19,36.4z"/>
	<path id="shadow_1_" opacity="0.6" fill="#3C246B" enable-background="new    " d="M31.09,36.44c-0.97-0.51-2.56-0.51-3.53,0
		l-1.8,0.95c-0.97,0.51-2.56,0.51-3.53,0l-1.8-0.95c-0.97-0.51-2.56-0.51-3.53,0l-2.75,1.45c-0.97,0.51-0.97,1.34,0,1.86L22.24,44
		c0.97,0.51,2.56,0.51,3.53,0l8.08-4.26c0.97-0.51,0.97-1.35,0-1.86L31.09,36.44z"/>
</g>
<polygon id="u" fill="#5F29C6" points="43,11.66 43,35.47 24,45.38 5,35.47 5,11.66 5.01,11.66 15.53,6.17 15.53,29.52 24,33.93 
	32.47,29.52 32.47,6.17 "/>
<polygon id="line" fill="#EAE3F9" points="43,11.66 43,13.2 32.47,18.7 24.69,22.76 24.69,45.02 24,45.38 23.31,45.02 23.31,22.76 
	15.53,18.7 5,13.2 5,11.66 5.01,11.66 15.53,17.15 24,21.57 32.47,17.15 "/>
</svg>
