<?xml version="1.0" encoding="utf-8"?>
<!-- Generator: Adobe Illustrator 16.0.3, SVG Export Plug-In . SVG Version: 6.00 Build 0)  -->
<!DOCTYPE svg PUBLIC "-//W3C//DTD SVG 1.1//EN" "http://www.w3.org/Graphics/SVG/1.1/DTD/svg11.dtd">
<svg version="1.1" id="use-package" xmlns="http://www.w3.org/2000/svg" xmlns:xlink="http://www.w3.org/1999/xlink" x="0px"
	 y="0px" width="96px" height="96px" viewBox="0 0 96 96" enable-background="new 0 0 96 96" xml:space="preserve">
<g id="shadow_9_" opacity="0.4">
	<g id="shadow_1_">
		<g>
			<path id="shadow_3_" fill="#FFFFFF" fill-opacity="0" d="M73.82,67.05c-3.53-1.86-9.31-1.86-12.84,0l-6.55,3.45
				c-3.53,1.87-9.31,1.87-12.85,0l-6.55-3.45c-3.53-1.86-9.31-1.86-12.84,0l-10.03,5.29c-3.53,1.86-3.53,4.91,0,6.77l29.43,15.5
				c3.53,1.86,9.31,1.86,12.85,0l29.42-15.5c3.53-1.86,3.53-4.91,0-6.77L73.82,67.05z"/>
			<path opacity="0.0118" fill="#FBFBFC" enable-background="new    " d="M73.62,67.13c-3.5-1.84-9.24-1.84-12.74,0l-6.5,3.42
				c-3.5,1.85-9.24,1.85-12.75,0l-6.5-3.42c-3.5-1.84-9.24-1.84-12.74,0l-9.95,5.25c-3.51,1.84-3.51,4.87,0,6.71l29.19,15.38
				c3.51,1.84,9.24,1.84,12.75,0l29.19-15.38c3.51-1.84,3.51-4.87,0-6.71L73.62,67.13z"/>
			<path opacity="0.0235" fill="#F7F6F9" enable-background="new    " d="M73.42,67.21c-3.48-1.83-9.17-1.83-12.64,0l-6.45,3.4
				c-3.48,1.84-9.17,1.84-12.65,0l-6.45-3.4c-3.48-1.83-9.17-1.83-12.64,0l-9.87,5.2c-3.48,1.83-3.48,4.83,0,6.66l28.96,15.26
				c3.48,1.83,9.17,1.83,12.65,0l28.96-15.26c3.48-1.83,3.48-4.83,0-6.66L73.42,67.21z"/>
			<path opacity="0.0353" fill="#F4F2F6" enable-background="new    " d="M73.21,67.29c-3.45-1.81-9.09-1.81-12.54,0l-6.4,3.37
				c-3.45,1.82-9.09,1.82-12.55,0l-6.4-3.37c-3.45-1.81-9.09-1.81-12.54,0l-9.79,5.16c-3.45,1.81-3.45,4.79,0,6.61L41.73,94.2
				c3.45,1.81,9.1,1.81,12.55,0l28.73-15.14c3.45-1.81,3.45-4.79,0-6.61L73.21,67.29z"/>
			<path opacity="0.0471" fill="#F0EEF3" enable-background="new    " d="M73.01,67.37c-3.42-1.8-9.02-1.8-12.44,0l-6.35,3.34
				c-3.42,1.81-9.02,1.81-12.44,0l-6.35-3.34c-3.42-1.8-9.02-1.8-12.44,0l-9.71,5.12c-3.42,1.8-3.42,4.76,0,6.55l28.5,15.01
				c3.42,1.8,9.02,1.8,12.44,0l28.5-15.01c3.42-1.8,3.42-4.76,0-6.55L73.01,67.37z"/>
			<path opacity="0.0588" fill="#ECEAF0" enable-background="new    " d="M72.81,67.45c-3.39-1.78-8.95-1.78-12.34,0l-6.3,3.32
				c-3.39,1.79-8.95,1.79-12.34,0l-6.29-3.32c-3.39-1.78-8.95-1.78-12.34,0l-9.64,5.08c-3.4,1.78-3.4,4.72,0,6.5l28.27,14.89
				c3.4,1.78,8.95,1.78,12.34,0l28.27-14.89c3.4-1.78,3.4-4.72,0-6.5L72.81,67.45z"/>
			<path opacity="0.0706" fill="#E8E5EE" enable-background="new    " d="M72.61,67.53c-3.37-1.77-8.88-1.77-12.24,0l-6.25,3.29
				c-3.37,1.78-8.88,1.78-12.24,0l-6.24-3.29c-3.37-1.77-8.87-1.77-12.24,0l-9.56,5.04c-3.37,1.77-3.37,4.68,0,6.45l28.04,14.77
				c3.37,1.77,8.88,1.77,12.24,0l28.04-14.77c3.37-1.77,3.37-4.68,0-6.45L72.61,67.53z"/>
			<path opacity="0.0824" fill="#E4E1EB" enable-background="new    " d="M72.4,67.61c-3.34-1.75-8.8-1.75-12.14,0l-6.19,3.26
				c-3.34,1.76-8.8,1.76-12.14,0l-6.19-3.26c-3.34-1.75-8.8-1.75-12.14,0l-9.48,5c-3.34,1.75-3.34,4.64,0,6.39l27.81,14.65
				c3.34,1.76,8.8,1.76,12.14,0L81.88,79c3.34-1.75,3.34-4.64,0-6.39L72.4,67.61z"/>
			<path opacity="0.0941" fill="#E0DDE8" enable-background="new    " d="M72.2,67.69c-3.31-1.74-8.73-1.74-12.04,0l-6.14,3.23
				c-3.31,1.75-8.73,1.75-12.04,0l-6.14-3.23c-3.31-1.74-8.73-1.74-12.04,0l-9.4,4.96c-3.31,1.74-3.31,4.6,0,6.34l27.58,14.53
				c3.31,1.74,8.73,1.74,12.04,0L81.6,78.99c3.31-1.74,3.31-4.6,0-6.34L72.2,67.69z"/>
			<path opacity="0.1059" fill="#DDD8E5" enable-background="new    " d="M72,67.77c-3.28-1.72-8.66-1.72-11.94,0l-6.09,3.21
				c-3.28,1.74-8.66,1.74-11.94,0l-6.09-3.21c-3.28-1.72-8.66-1.72-11.94,0l-9.32,4.91c-3.28,1.73-3.28,4.56,0,6.29l27.35,14.41
				c3.28,1.73,8.66,1.73,11.94,0l27.35-14.41c3.28-1.72,3.28-4.56,0-6.29L72,67.77z"/>
			<path opacity="0.1176" fill="#D9D4E2" enable-background="new    " d="M71.8,67.85c-3.26-1.71-8.58-1.71-11.84,0l-6.04,3.18
				c-3.26,1.72-8.58,1.72-11.84,0l-6.04-3.18c-3.26-1.71-8.58-1.71-11.84,0l-9.24,4.87c-3.26,1.71-3.26,4.53,0,6.24l27.12,14.28
				c3.26,1.71,8.58,1.71,11.84,0l27.12-14.28c3.26-1.71,3.26-4.52,0-6.24L71.8,67.85z"/>
			<path opacity="0.1294" fill="#D5D0DF" enable-background="new    " d="M71.59,67.93c-3.23-1.7-8.51-1.7-11.74,0l-5.99,3.15
				c-3.23,1.71-8.51,1.71-11.74,0l-5.99-3.15c-3.23-1.7-8.51-1.7-11.74,0l-9.16,4.83c-3.23,1.7-3.23,4.49,0,6.18l26.9,14.16
				c3.23,1.7,8.51,1.7,11.74,0l26.89-14.16c3.23-1.7,3.23-4.49,0-6.18L71.59,67.93z"/>
			<path opacity="0.1412" fill="#D1CBDC" enable-background="new    " d="M71.39,68.01c-3.2-1.68-8.44-1.68-11.64,0l-5.94,3.13
				c-3.2,1.69-8.44,1.69-11.64,0l-5.94-3.13c-3.2-1.68-8.44-1.68-11.64,0L15.5,72.8c-3.2,1.68-3.2,4.45,0,6.13l26.66,14.04
				c3.2,1.68,8.44,1.68,11.64,0l26.66-14.04c3.2-1.68,3.2-4.45,0-6.13L71.39,68.01z"/>
			<path opacity="0.1529" fill="#CDC7D9" enable-background="new    " d="M71.19,68.09c-3.17-1.67-8.36-1.67-11.54,0l-5.88,3.1
				c-3.17,1.68-8.36,1.68-11.54,0l-5.88-3.1c-3.17-1.67-8.36-1.67-11.54,0l-9.01,4.75c-3.17,1.67-3.17,4.41,0,6.08l26.43,13.92
				c3.17,1.67,8.37,1.67,11.54,0l26.42-13.92c3.17-1.67,3.17-4.41,0-6.08L71.19,68.09z"/>
			<path opacity="0.1647" fill="#C9C3D6" enable-background="new    " d="M70.99,68.17c-3.14-1.65-8.29-1.65-11.43,0l-5.83,3.07
				c-3.15,1.66-8.29,1.66-11.44,0l-5.83-3.07c-3.14-1.65-8.29-1.65-11.43,0l-8.93,4.71c-3.15,1.65-3.15,4.37,0,6.02l26.2,13.8
				c3.15,1.66,8.29,1.66,11.44,0l26.19-13.8c3.14-1.65,3.14-4.37,0-6.02L70.99,68.17z"/>
			<path opacity="0.1765" fill="#C6BFD3" enable-background="new    " d="M70.78,68.25c-3.12-1.64-8.22-1.64-11.33,0l-5.78,3.05
				c-3.12,1.65-8.22,1.65-11.34,0l-5.78-3.05c-3.12-1.64-8.22-1.64-11.33,0l-8.85,4.67c-3.12,1.64-3.12,4.33,0,5.97l25.96,13.68
				c3.12,1.64,8.22,1.64,11.34,0l25.96-13.68c3.12-1.64,3.12-4.33,0-5.97L70.78,68.25z"/>
			<path opacity="0.1882" fill="#C2BAD1" enable-background="new    " d="M70.58,68.33c-3.09-1.62-8.14-1.62-11.23,0l-5.73,3.02
				c-3.09,1.63-8.15,1.63-11.24,0l-5.73-3.02c-3.09-1.62-8.14-1.62-11.23,0l-8.77,4.62c-3.09,1.62-3.09,4.29,0,5.92l25.73,13.55
				c3.09,1.63,8.15,1.63,11.24,0l25.73-13.55c3.09-1.62,3.09-4.29,0-5.92L70.58,68.33z"/>
			<path opacity="0.2" fill="#BEB6CE" enable-background="new    " d="M70.38,68.41c-3.06-1.61-8.07-1.61-11.13,0l-5.68,2.99
				c-3.06,1.62-8.07,1.62-11.13,0l-5.68-2.99c-3.06-1.61-8.07-1.61-11.13,0l-8.69,4.58c-3.06,1.61-3.06,4.26,0,5.86l25.5,13.43
				c3.06,1.61,8.07,1.61,11.13,0l25.5-13.43c3.06-1.61,3.06-4.25,0-5.86L70.38,68.41z"/>
			<path opacity="0.2118" fill="#BAB2CB" enable-background="new    " d="M70.18,68.48c-3.03-1.59-8-1.59-11.03,0l-5.63,2.97
				c-3.04,1.6-8,1.6-11.03,0l-5.63-2.97c-3.03-1.59-8-1.59-11.03,0l-8.61,4.54c-3.03,1.59-3.03,4.22,0,5.81l25.27,13.31
				c3.03,1.6,8,1.6,11.03,0l25.27-13.31c3.03-1.59,3.03-4.22,0-5.81L70.18,68.48z"/>
			<path opacity="0.2235" fill="#B6ADC8" enable-background="new    " d="M69.97,68.56c-3.01-1.58-7.93-1.58-10.93,0l-5.58,2.94
				c-3.01,1.59-7.93,1.59-10.93,0l-5.58-2.94c-3.01-1.58-7.92-1.58-10.93,0l-8.54,4.5c-3.01,1.58-3.01,4.18,0,5.76l25.04,13.19
				c3.01,1.58,7.93,1.58,10.93,0l25.04-13.19c3.01-1.58,3.01-4.18,0-5.76L69.97,68.56z"/>
			<path opacity="0.2353" fill="#B3A9C5" enable-background="new    " d="M69.77,68.64c-2.98-1.56-7.85-1.56-10.83,0l-5.52,2.91
				c-2.98,1.57-7.85,1.57-10.83,0l-5.52-2.91c-2.98-1.56-7.85-1.56-10.83,0l-8.46,4.46c-2.98,1.57-2.98,4.14,0,5.71l24.81,13.07
				c2.98,1.57,7.85,1.57,10.83,0l24.81-13.07c2.98-1.56,2.98-4.14,0-5.71L69.77,68.64z"/>
			<path opacity="0.2471" fill="#AFA5C2" enable-background="new    " d="M69.57,68.72c-2.95-1.55-7.78-1.55-10.73,0l-5.47,2.89
				c-2.95,1.56-7.78,1.56-10.73,0l-5.47-2.89c-2.95-1.55-7.78-1.55-10.73,0l-8.38,4.42c-2.95,1.55-2.95,4.1,0,5.65l24.58,12.95
				c2.95,1.55,7.78,1.55,10.73,0l24.58-12.95c2.95-1.55,2.95-4.1,0-5.65L69.57,68.72z"/>
			<path opacity="0.2588" fill="#ABA1BF" enable-background="new    " d="M69.37,68.8c-2.92-1.54-7.71-1.54-10.63,0l-5.42,2.86
				c-2.92,1.54-7.71,1.54-10.63,0l-5.42-2.86c-2.92-1.54-7.71-1.54-10.63,0l-8.3,4.38c-2.92,1.54-2.92,4.06,0,5.6L42.69,91.6
				c2.92,1.54,7.71,1.54,10.63,0l24.35-12.82c2.92-1.54,2.92-4.06,0-5.6L69.37,68.8z"/>
			<path opacity="0.2706" fill="#A79CBC" enable-background="new    " d="M69.16,68.88c-2.9-1.52-7.63-1.52-10.53,0l-5.37,2.83
				c-2.9,1.53-7.63,1.53-10.53,0l-5.37-2.83c-2.89-1.52-7.63-1.52-10.53,0l-8.22,4.33c-2.9,1.52-2.9,4.03,0,5.55l24.12,12.7
				c2.9,1.53,7.63,1.53,10.53,0l24.12-12.7c2.9-1.52,2.9-4.02,0-5.55L69.16,68.88z"/>
			<path opacity="0.2824" fill="#A398B9" enable-background="new    " d="M68.96,68.96c-2.87-1.51-7.56-1.51-10.43,0l-5.32,2.81
				c-2.87,1.51-7.56,1.51-10.43,0l-5.32-2.81c-2.87-1.51-7.56-1.51-10.43,0l-8.14,4.29c-2.87,1.51-2.87,3.99,0,5.49l23.89,12.58
				c2.87,1.51,7.56,1.51,10.43,0L77.1,78.75c2.87-1.51,2.87-3.99,0-5.49L68.96,68.96z"/>
			<path opacity="0.2941" fill="#9F94B6" enable-background="new    " d="M68.76,69.04c-2.84-1.49-7.49-1.49-10.33,0l-5.27,2.78
				c-2.84,1.5-7.49,1.5-10.33,0l-5.27-2.78c-2.84-1.49-7.49-1.49-10.33,0l-8.06,4.25c-2.84,1.49-2.84,3.95,0,5.44l23.66,12.46
				c2.84,1.5,7.49,1.5,10.33,0l23.65-12.46c2.84-1.49,2.84-3.95,0-5.44L68.76,69.04z"/>
			<path opacity="0.3059" fill="#9C8FB4" enable-background="new    " d="M68.56,69.12c-2.81-1.48-7.41-1.48-10.23,0l-5.22,2.75
				c-2.81,1.48-7.42,1.48-10.23,0l-5.22-2.75c-2.81-1.48-7.41-1.48-10.23,0l-7.98,4.21c-2.81,1.48-2.81,3.91,0,5.39l23.43,12.34
				c2.81,1.48,7.42,1.48,10.23,0l23.42-12.34c2.81-1.48,2.81-3.91,0-5.39L68.56,69.12z"/>
			<path opacity="0.3176" fill="#988BB1" enable-background="new    " d="M68.35,69.2c-2.78-1.46-7.34-1.46-10.12,0l-5.16,2.72
				c-2.79,1.47-7.34,1.47-10.13,0l-5.16-2.72c-2.78-1.46-7.34-1.46-10.13,0l-7.91,4.17c-2.78,1.46-2.78,3.87,0,5.33l23.2,12.22
				c2.79,1.47,7.34,1.47,10.13,0L76.26,78.7c2.79-1.46,2.79-3.87,0-5.33L68.35,69.2z"/>
			<path opacity="0.3294" fill="#9487AE" enable-background="new    " d="M68.15,69.28c-2.76-1.45-7.27-1.45-10.02,0l-5.11,2.7
				c-2.76,1.45-7.27,1.45-10.03,0l-5.11-2.7c-2.76-1.45-7.27-1.45-10.02,0l-7.83,4.13c-2.76,1.45-2.76,3.83,0,5.28L43,90.79
				c2.76,1.46,7.27,1.46,10.03,0l22.96-12.1c2.76-1.45,2.76-3.83,0-5.28L68.15,69.28z"/>
			<path opacity="0.3412" fill="#9082AB" enable-background="new    " d="M67.95,69.36c-2.73-1.43-7.2-1.43-9.92,0l-5.06,2.67
				c-2.73,1.44-7.2,1.44-9.93,0l-5.06-2.67c-2.73-1.43-7.19-1.43-9.92,0l-7.75,4.08c-2.73,1.43-2.73,3.79,0,5.23l22.73,11.97
				c2.73,1.44,7.2,1.44,9.93,0L75.7,78.67c2.73-1.43,2.73-3.79,0-5.23L67.95,69.36z"/>
			<path opacity="0.3529" fill="#8C7EA8" enable-background="new    " d="M67.75,69.44c-2.7-1.42-7.12-1.42-9.82,0l-5.01,2.64
				c-2.7,1.42-7.12,1.42-9.83,0l-5.01-2.64c-2.7-1.42-7.12-1.42-9.82,0l-7.67,4.04c-2.7,1.42-2.7,3.76,0,5.17l22.5,11.85
				c2.7,1.43,7.12,1.43,9.83,0l22.5-11.85c2.7-1.42,2.7-3.75,0-5.17L67.75,69.44z"/>
			<path opacity="0.3647" fill="#887AA5" enable-background="new    " d="M67.54,69.52c-2.67-1.41-7.05-1.41-9.72,0l-4.96,2.62
				c-2.67,1.41-7.05,1.41-9.72,0l-4.96-2.62c-2.67-1.4-7.05-1.4-9.72,0l-7.59,4c-2.67,1.41-2.67,3.72,0,5.12l22.27,11.73
				c2.67,1.41,7.05,1.41,9.72,0l22.27-11.73c2.67-1.4,2.67-3.71,0-5.12L67.54,69.52z"/>
			<path opacity="0.3765" fill="#8576A2" enable-background="new    " d="M67.34,69.6c-2.65-1.39-6.98-1.39-9.62,0l-4.91,2.59
				c-2.65,1.39-6.98,1.39-9.62,0l-4.91-2.59c-2.65-1.39-6.98-1.39-9.62,0l-7.51,3.96c-2.65,1.39-2.65,3.68,0,5.07l22.04,11.61
				c2.65,1.4,6.98,1.4,9.62,0l22.04-11.61c2.65-1.39,2.65-3.68,0-5.07L67.34,69.6z"/>
			<path opacity="0.3882" fill="#81719F" enable-background="new    " d="M67.14,69.68c-2.62-1.38-6.9-1.38-9.52,0l-4.86,2.56
				c-2.62,1.38-6.9,1.38-9.52,0l-4.86-2.56c-2.62-1.38-6.9-1.38-9.52,0l-7.43,3.92c-2.62,1.38-2.62,3.64,0,5.01L43.24,90.1
				c2.62,1.38,6.9,1.38,9.52,0l21.81-11.49c2.62-1.38,2.62-3.64,0-5.01L67.14,69.68z"/>
			<path opacity="0.4" fill="#7D6D9C" enable-background="new    " d="M66.94,69.76c-2.59-1.36-6.83-1.36-9.42,0l-4.8,2.54
				c-2.59,1.37-6.83,1.37-9.42,0l-4.8-2.54c-2.59-1.36-6.83-1.36-9.42,0l-7.35,3.88c-2.59,1.36-2.59,3.6,0,4.96l21.58,11.37
				c2.59,1.37,6.83,1.37,9.42,0L74.29,78.6c2.59-1.36,2.59-3.6,0-4.96L66.94,69.76z"/>
			<path opacity="0.4118" fill="#796999" enable-background="new    " d="M66.73,69.84c-2.56-1.35-6.76-1.35-9.32,0l-4.75,2.51
				c-2.56,1.35-6.76,1.35-9.32,0l-4.75-2.51c-2.56-1.35-6.76-1.35-9.32,0l-7.28,3.84c-2.56,1.35-2.56,3.56,0,4.91l21.35,11.24
				c2.56,1.36,6.76,1.36,9.32,0l21.35-11.24c2.56-1.35,2.56-3.56,0-4.91L66.73,69.84z"/>
			<path opacity="0.4235" fill="#756497" enable-background="new    " d="M66.53,69.92c-2.54-1.33-6.68-1.33-9.22,0l-4.7,2.48
				c-2.54,1.33-6.69,1.33-9.22,0l-4.7-2.48c-2.53-1.33-6.68-1.33-9.22,0l-7.2,3.79c-2.53,1.33-2.53,3.52,0,4.86l21.12,11.12
				c2.54,1.34,6.68,1.34,9.22,0l21.12-11.12c2.54-1.33,2.54-3.52,0-4.86L66.53,69.92z"/>
			<path opacity="0.4353" fill="#726094" enable-background="new    " d="M66.33,70c-2.51-1.32-6.61-1.32-9.12,0l-4.65,2.46
				c-2.51,1.32-6.61,1.32-9.12,0L38.79,70c-2.51-1.32-6.61-1.32-9.12,0l-7.12,3.75c-2.51,1.32-2.51,3.49,0,4.8l20.89,11
				c2.51,1.33,6.61,1.33,9.12,0l20.89-11c2.51-1.32,2.51-3.48,0-4.8L66.33,70z"/>
			<path opacity="0.4471" fill="#6E5C91" enable-background="new    " d="M66.13,70.08c-2.48-1.3-6.54-1.3-9.02,0l-4.6,2.43
				c-2.48,1.31-6.54,1.31-9.02,0l-4.6-2.43c-2.48-1.3-6.54-1.3-9.02,0l-7.04,3.71c-2.48,1.3-2.48,3.45,0,4.75l20.66,10.88
				c2.48,1.31,6.54,1.31,9.02,0l20.65-10.88c2.48-1.3,2.48-3.45,0-4.75L66.13,70.08z"/>
			<path opacity="0.4588" fill="#6A588E" enable-background="new    " d="M65.92,70.15c-2.45-1.29-6.46-1.29-8.92,0l-4.55,2.4
				c-2.45,1.29-6.47,1.29-8.92,0l-4.55-2.4c-2.45-1.29-6.46-1.29-8.92,0l-6.96,3.67c-2.45,1.29-2.45,3.41,0,4.7l20.43,10.76
				c2.45,1.3,6.47,1.3,8.92,0l20.42-10.76c2.45-1.29,2.45-3.41,0-4.7L65.92,70.15z"/>
			<path opacity="0.4706" fill="#66538B" enable-background="new    " d="M65.72,70.23c-2.42-1.27-6.39-1.27-8.81,0l-4.5,2.38
				c-2.43,1.28-6.39,1.28-8.82,0l-4.5-2.38c-2.42-1.27-6.39-1.27-8.82,0l-6.88,3.63c-2.42,1.27-2.42,3.37,0,4.64l20.2,10.63
				c2.42,1.28,6.39,1.28,8.82,0L72.6,78.51c2.43-1.27,2.43-3.37,0-4.64L65.72,70.23z"/>
			<path opacity="0.4824" fill="#624F88" enable-background="new    " d="M65.52,70.31c-2.4-1.26-6.32-1.26-8.71,0l-4.44,2.35
				c-2.4,1.26-6.32,1.26-8.72,0l-4.45-2.35c-2.4-1.26-6.32-1.26-8.72,0l-6.8,3.59c-2.4,1.26-2.4,3.33,0,4.59L43.64,89
				c2.4,1.27,6.32,1.27,8.72,0l19.96-10.51c2.4-1.26,2.4-3.33,0-4.59L65.52,70.31z"/>
			<path opacity="0.4941" fill="#5E4B85" enable-background="new    " d="M65.32,70.39c-2.37-1.25-6.25-1.25-8.61,0l-4.39,2.32
				c-2.37,1.25-6.25,1.25-8.62,0l-4.39-2.32c-2.37-1.24-6.24-1.24-8.62,0l-6.73,3.54c-2.37,1.25-2.37,3.29,0,4.54l19.73,10.39
				c2.37,1.26,6.25,1.26,8.62,0l19.73-10.39c2.37-1.24,2.37-3.29,0-4.54L65.32,70.39z"/>
			<path opacity="0.5059" fill="#5B4682" enable-background="new    " d="M65.11,70.47c-2.34-1.23-6.17-1.23-8.51,0l-4.34,2.3
				c-2.34,1.23-6.17,1.23-8.52,0l-4.34-2.3c-2.34-1.23-6.17-1.23-8.51,0l-6.65,3.5c-2.34,1.23-2.34,3.25,0,4.48l19.5,10.27
				c2.34,1.24,6.17,1.24,8.52,0l19.5-10.27c2.34-1.23,2.34-3.25,0-4.48L65.11,70.47z"/>
			<path opacity="0.5176" fill="#57427F" enable-background="new    " d="M64.91,70.55c-2.31-1.22-6.1-1.22-8.41,0l-4.29,2.27
				c-2.31,1.22-6.1,1.22-8.41,0l-4.3-2.27c-2.31-1.21-6.1-1.21-8.41,0l-6.57,3.46c-2.31,1.22-2.31,3.22,0,4.43l19.27,10.15
				c2.31,1.23,6.1,1.23,8.41,0l19.27-10.15c2.32-1.21,2.32-3.21,0-4.43L64.91,70.55z"/>
			<path opacity="0.5294" fill="#533E7C" enable-background="new    " d="M64.71,70.63c-2.29-1.2-6.03-1.2-8.31,0l-4.24,2.24
				c-2.29,1.2-6.03,1.2-8.31,0l-4.24-2.24c-2.29-1.2-6.03-1.2-8.31,0l-6.49,3.42c-2.28,1.2-2.28,3.18,0,4.38l19.04,10.03
				c2.29,1.21,6.03,1.21,8.31,0L71.2,78.43c2.29-1.2,2.29-3.18,0-4.38L64.71,70.63z"/>
			<path opacity="0.5412" fill="#4F397A" enable-background="new    " d="M64.51,70.71c-2.26-1.19-5.95-1.19-8.21,0l-4.19,2.21
				c-2.26,1.19-5.96,1.19-8.21,0l-4.19-2.21c-2.26-1.19-5.95-1.19-8.21,0l-6.41,3.38c-2.26,1.19-2.26,3.14,0,4.33l18.81,9.91
				c2.26,1.2,5.95,1.2,8.21,0l18.81-9.91c2.26-1.19,2.26-3.14,0-4.33L64.51,70.71z"/>
			<path opacity="0.5529" fill="#4B3577" enable-background="new    " d="M64.3,70.79c-2.23-1.17-5.88-1.17-8.11,0l-4.14,2.19
				c-2.23,1.17-5.88,1.17-8.11,0l-4.14-2.19c-2.23-1.17-5.88-1.17-8.11,0l-6.33,3.34c-2.23,1.17-2.23,3.1,0,4.27l18.58,9.78
				c2.23,1.18,5.88,1.18,8.11,0l18.58-9.78c2.23-1.17,2.23-3.1,0-4.27L64.3,70.79z"/>
			<path opacity="0.5647" fill="#473174" enable-background="new    " d="M64.1,70.87c-2.2-1.16-5.81-1.16-8.01,0l-4.08,2.16
				c-2.2,1.16-5.81,1.16-8.01,0l-4.09-2.16c-2.2-1.16-5.81-1.16-8.01,0l-6.25,3.3c-2.2,1.16-2.2,3.06,0,4.22L44,88.05
				c2.2,1.17,5.81,1.17,8.01,0l18.35-9.66c2.2-1.16,2.2-3.06,0-4.22L64.1,70.87z"/>
			<path opacity="0.5765" fill="#442D71" enable-background="new    " d="M63.9,70.95c-2.17-1.14-5.74-1.14-7.91,0l-4.03,2.13
				c-2.18,1.14-5.74,1.14-7.91,0l-4.03-2.13c-2.17-1.14-5.73-1.14-7.91,0l-6.18,3.25c-2.17,1.14-2.17,3.02,0,4.17l18.12,9.54
				c2.17,1.16,5.73,1.16,7.91,0l18.12-9.54c2.18-1.14,2.18-3.02,0-4.17L63.9,70.95z"/>
			<path opacity="0.5882" fill="#40286E" enable-background="new    " d="M63.7,71.03c-2.15-1.13-5.66-1.13-7.81,0l-3.98,2.11
				c-2.15,1.13-5.66,1.13-7.81,0l-3.98-2.11c-2.15-1.13-5.66-1.13-7.81,0l-6.1,3.21c-2.15,1.13-2.15,2.99,0,4.11l17.89,9.42
				c2.15,1.14,5.66,1.14,7.81,0l17.89-9.42c2.15-1.13,2.15-2.98,0-4.11L63.7,71.03z"/>
			<path id="shadow_2_" opacity="0.6" fill="#3C246B" enable-background="new    " d="M63.49,71.11c-2.12-1.11-5.59-1.11-7.71,0
				l-3.93,2.08c-2.12,1.11-5.59,1.11-7.71,0l-3.93-2.08c-2.12-1.11-5.59-1.11-7.71,0l-6.02,3.17c-2.12,1.11-2.12,2.95,0,4.06
				l17.66,9.3c2.12,1.13,5.59,1.13,7.71,0l17.65-9.3c2.12-1.11,2.12-2.95,0-4.06L63.49,71.11z"/>
		</g>
	</g>
</g>
<polygon id="u" fill="#5F29C6" points="89.5,17 89.5,69 48,90.65 6.5,69 6.5,17 6.51,17 29.5,5 29.5,56 48,65.65 66.5,56 66.5,5 
	89.49,17 "/>
<polygon id="line" fill="#EAE3F9" points="89.5,17 89.5,20.37 66.5,32.37 49.5,41.24 49.5,89.87 48,90.65 46.5,89.87 46.5,41.24 
	29.5,32.37 6.5,20.37 6.5,17 6.51,17 29.5,28.99 48,38.64 66.5,28.99 89.49,17 "/>
</svg>
